Coordinates
version=1
nRows=22
nColumns=24
inDegrees=yes

Units are S.I. units (second, meters, Newtons, ...)
Angles are in degrees.

endheader
time	pelvis_tilt	pelvis_list	pelvis_rotation	pelvis_tx	pelvis_ty	pelvis_tz	hip_flexion_r	hip_adduction_r	hip_rotation_r	knee_angle_r	ankle_angle_r	subtalar_angle_r	mtp_angle_r	hip_flexion_l	hip_adduction_l	hip_rotation_l	knee_angle_l	ankle_angle_l	subtalar_angle_l	mtp_angle_l	lumbar_extension	lumbar_bending	lumbar_rotation
      1.59500000	      7.78408620	     -5.93293398	      7.87764399	     -0.14049567	      1.00895198	     -0.01108941	     13.19577383	     -4.02327542	    -32.07963394	    -18.09051372	     -1.71996489	      6.07756563	      9.95083234	     -9.75581185	     -5.07587003	    -11.60540453	    -13.81179212	      6.19109163	     -3.50117713	      3.58946361	    -14.96302856	     16.11116520	     35.41073616
      1.60000000	      7.67106784	     -5.76182471	      8.13733354	     -0.13431147	      1.00780727	     -0.01048498	     13.52803253	     -4.16200754	    -32.79032024	    -16.76689286	     -1.52332764	      7.16741042	      7.83764954	     -9.95290244	     -5.01869188	    -11.44710624	    -13.89673790	      6.39232443	     -3.60909812	      4.34156800	    -14.82521218	     15.97182139	     35.20145371
      1.60500000	      7.55311198	     -5.57113352	      8.36805960	     -0.12810836	      1.00663149	     -0.00980833	     13.86311387	     -4.31177452	    -33.46755966	    -15.46188009	     -1.61278844	      8.20910923	      7.77360511	    -10.14581297	     -4.94733495	    -11.34692230	    -14.00476520	      6.66964307	     -3.51604098	      4.40367186	    -14.69611613	     15.80444401	     35.03631916
      1.61000000	      7.42895200	     -5.38874801	      8.60444365	     -0.12189929	      1.00541864	     -0.00912821	     14.20206113	     -4.45241896	    -34.13613821	    -14.20799616	     -1.66328025	      9.30035175	      7.64535732	    -10.32758404	     -4.88339871	    -11.21643477	    -14.11921729	      6.95611998	     -3.50904155	      4.49690596	    -14.55679706	     15.64937616	     34.85797595
      1.61500000	      7.29530841	     -5.19876173	      8.82182985	     -0.11573270	      1.00415653	     -0.00841679	     14.56205444	     -4.60113183	    -34.73662746	    -13.04778097	     -1.44789042	     10.48763256	      5.67248360	    -10.48961050	     -4.80617517	    -11.07722539	    -14.25164540	      7.14781713	     -3.61893992	      5.23860731	    -14.42313809	     15.48327658	     34.69373660
      1.62000000	      7.17824490	     -5.03452393	      9.03411409	     -0.10949091	      1.00290404	     -0.00764759	     14.89160114	     -4.70871840	    -35.32484868	    -11.90427686	     -1.50339854	     11.57841914	      5.60537191	    -10.66993366	     -4.77104831	    -10.99484790	    -14.39791686	      7.44411505	     -3.56640245	      5.30277376	    -14.30136403	     15.34580290	     34.54603286
      1.62500000	      7.04506227	     -4.86650761	      9.24492702	     -0.10327185	      1.00160690	     -0.00686872	     15.24101134	     -4.82697679	    -35.86153494	    -10.84286587	     -1.53319657	     12.64915873	      5.47833632	    -10.82176503	     -4.73002126	    -10.88091477	    -14.56481664	      7.71413239	     -3.56130747	      5.40275489	    -14.17015637	     15.20672964	     34.41833562
      1.63000000	      6.91873447	     -4.70389161	      9.45633283	     -0.09701741	      1.00030219	     -0.00608774	     15.57913525	     -4.94227391	    -36.36073538	     -9.86240092	     -1.53566834	     13.68354495	      5.26468728	    -10.98495289	     -4.69662941	    -10.76600427	    -14.72722604	      7.99580367	     -3.58035371	      5.55473691	    -14.04187757	     15.07486736	     34.26784818
      1.63500000	      6.78203513	     -4.53947849	      9.65575764	     -0.09079725	      0.99897890	     -0.00529465	     15.93370095	     -5.06688985	    -36.75363331	     -8.99791731	     -1.25024519	     14.67866162	      3.08070550	    -11.12413994	     -4.65794213	    -10.62856306	    -14.90936408	      8.11370287	     -3.72861235	      6.61616911	    -13.91558026	     14.94502944	     34.14837618
      1.64000000	      6.66493890	     -4.40487268	      9.85968777	     -0.08446655	      0.99767744	     -0.00446061	     16.25106604	     -5.15476272	    -37.12176407	     -8.18266857	     -1.25630560	     15.51273654	      3.00242979	    -11.28919750	     -4.66903535	    -10.54429093	    -15.09910093	      8.40328408	     -3.65766773	      6.67655795	    -13.79323099	     14.84402975	     34.00927239
      1.64500000	      6.53795268	     -4.26826425	     10.06406882	     -0.07815387	      0.99635036	     -0.00364727	     16.58001077	     -5.26145105	    -37.40756713	     -7.48206887	     -1.23998964	     16.22491701	      2.89703099	    -11.43039394	     -4.67635529	    -10.42037560	    -15.31624691	      8.65614216	     -3.64755035	      6.77261840	    -13.66749020	     14.75117354	     33.89425720
      1.65000000	      6.44316259	     -4.13945767	     10.26668328	     -0.07176157	      0.99507465	     -0.00286186	     16.86135914	     -5.36562767	    -37.63964236	     -6.89193305	     -1.03269463	     16.90768418	      1.68380703	    -11.62611436	     -4.69077964	    -10.28399470	    -15.48850402	      8.77148690	     -3.80419807	      7.55800529	    -13.56740055	     14.67295641	     33.75174761
      1.65500000	      6.33569699	     -4.03036637	     10.49943969	     -0.06535883	      0.99377784	     -0.00207872	     17.15182591	     -5.46853952	    -37.79975225	     -6.41569161	     -0.93878931	     17.27287143	      1.63217076	    -11.77927920	     -4.74851517	    -10.13183172	    -15.72627590	      9.05468913	     -3.68748735	      7.64755432	    -13.44525713	     14.61992089	     33.58626559
      1.66000000	      6.25788522	     -3.92968869	     10.73242722	     -0.05887728	      0.99252406	     -0.00132187	     17.39689005	     -5.57336653	    -37.91709878	     -6.05186967	     -0.82882938	     17.60053334	      1.55527801	    -11.97659315	     -4.81852166	     -9.96791831	    -15.94039547	      9.28234732	     -3.66697118	      7.77646814	    -13.34814132	     14.58715030	     33.42140489
      1.66500000	      6.19263226	     -3.84339082	     10.96880362	     -0.05232438	      0.99129822	     -0.00057857	     17.61508676	     -5.67272140	    -37.96259639	     -5.79985791	     -0.68964025	     17.76845134	      1.45945854	    -12.18748691	     -4.91085261	     -9.78887073	    -16.15871146	      9.48487035	     -3.64196612	      7.96438106	    -13.25208589	     14.57522503	     33.24707365
      1.67000000	      6.15500574	     -3.76178885	     11.19663944	     -0.04570327	      0.99011539	      0.00014975	     17.79482322	     -5.77641282	    -37.94861714	     -5.67742076	     -0.43384182	     17.87100120	      0.68427149	    -12.43742437	     -5.01321874	     -9.62603542	    -16.35479102	      9.51644189	     -3.73611453	      9.28353632	    -13.18495186	     14.57694875	     33.07089577
      1.67500000	      6.12093278	     -3.68540904	     11.42611461	     -0.03903655	      0.98893982	      0.00087230	     17.96159938	     -5.88549712	    -37.84644388	     -5.66817161	     -0.26007400	     17.73389328	      0.68640351	    -12.68663711	     -5.12869106	     -9.44139048	    -16.57881892	      9.72341242	     -3.68196390	      9.35006685	    -13.11660027	     14.59068724	     32.90892806
      1.68000000	      6.09820158	     -3.62902552	     11.67599172	     -0.03229276	      0.98778819	      0.00158168	     18.09372083	     -5.98279200	    -37.71188382	     -5.74966466	     -0.08092901	     17.50388098	      0.69084524	    -12.93860840	     -5.28080054	     -9.24002231	    -16.81674094	      9.89848041	     -3.61249217	      9.46151115	    -13.04221899	     14.62992962	     32.70466634
      1.68500000	      6.06410795	     -3.58813926	     11.92256292	     -0.02549641	      0.98663015	      0.00230087	     18.21689036	     -6.06698223	    -37.47049332	     -5.90060958	      0.05364910	     17.10783895	      0.68988526	    -13.16470796	     -5.45436071	     -9.03776105	    -17.08377260	     10.03809465	     -3.53687805	      9.73558175	    -12.94741170	     14.68855878	     32.51110831
      1.69000000	      6.08622118	     -3.53761588	     12.13899539	     -0.01858445	      0.98554414	      0.00303214	     18.27388410	     -6.15280377	    -37.19657084	     -6.16993297	      0.21164688	     16.71405563	      0.80418642	    -13.48093438	     -5.62356987	     -8.88652190	    -17.30168373	      9.99894950	     -3.57756854	     11.21401228	    -12.91360171	     14.74537948	     32.33235087
      1.69500000	      6.08300293	     -3.49325928	     12.38231403	     -0.01165394	      0.98442851	      0.00373569	     18.33572630	     -6.24814400	    -36.89914121	     -6.50857616	      0.33122887	     16.25627828	      0.85585568	    -13.74434431	     -5.80732974	     -8.66499149	    -17.57662991	     10.13061744	     -3.48107328	     11.35642844	    -12.84210719	     14.81374749	     32.14280805
      1.70000000	      6.10091139	     -3.45129541	     12.59379233	     -0.00463806	      0.98334313	      0.00450188	     18.36048330	     -6.32287949	    -36.51909042	     -6.90057327	      0.40013738	     15.72851667	      0.95054206	    -14.03560669	     -5.99955462	     -8.49999829	    -17.85817243	     10.22868909	     -3.38725324	     11.62394998	    -12.79110803	     14.88098118	     31.97323959
